<?xml version="1.0" standalone="no"?><!DOCTYPE svg PUBLIC "-//W3C//DTD SVG 1.1//EN" "http://www.w3.org/Graphics/SVG/1.1/DTD/svg11.dtd"><svg t="1719504718200" class="icon" viewBox="0 0 1024 1024" version="1.1" xmlns="http://www.w3.org/2000/svg" p-id="6245" xmlns:xlink="http://www.w3.org/1999/xlink" width="256" height="256"><path d="M368 832h-48.026l53.172-161.564H649.6L702.772 832H656c-17.674 0-32 14.326-32 32v64c0 17.674 14.326 32 32 32h272c17.674 0 32-14.326 32-32v-64c0-17.674-14.326-32-32-32h-53.478L614.99 85.492A32 32 0 0 0 584.764 64h-145.532a32 32 0 0 0-30.226 21.492L149.478 832H96c-17.674 0-32 14.326-32 32v64c0 17.674 14.326 32 32 32h272c17.674 0 32-14.326 32-32v-64c0-17.674-14.326-32-32-32z m128.706-543.556c8.696-30.432 13.22-56.312 15.172-69.288 1.678 13.042 5.878 38.952 15.454 69.412l82.67 248.012h-197.238l83.942-248.136z" fill="#2c2c2c" p-id="6246"></path></svg>