<?xml version="1.0" standalone="no"?><!DOCTYPE svg PUBLIC "-//W3C//DTD SVG 1.1//EN" "http://www.w3.org/Graphics/SVG/1.1/DTD/svg11.dtd"><svg t="1776514832387" class="icon" viewBox="0 0 1024 1024" version="1.1" xmlns="http://www.w3.org/2000/svg" p-id="9849" xmlns:xlink="http://www.w3.org/1999/xlink" width="200" height="200"><path d="M244.363636 325.818182c9.309091-2.327273 20.945455 4.654545 23.272728 13.963636 2.327273 6.981818 4.654545 16.290909 6.981818 23.272727 4.654545 16.290909 9.309091 30.254545 13.963636 46.545455s11.636364 32.581818 18.618182 46.545455c6.981818 13.963636 11.636364 25.6 18.618182 39.563636 2.327273 2.327273 2.327273 6.981818 2.327273 9.309091v314.181818c0 9.309091-6.981818 16.290909-13.963637 18.618182L139.636364 884.363636c-9.309091 2.327273-20.945455-4.654545-23.272728-13.963636V372.363636c0-9.309091 6.981818-16.290909 13.963637-18.618181l114.036363-27.927273z m81.454546-32.581818v-6.981819-6.981818c0-25.6 4.654545-48.872727 13.963636-72.145454 18.618182-44.218182 55.854545-79.127273 100.072727-97.745455 46.545455-18.618182 100.072727-18.618182 146.618182 0 44.218182 18.618182 81.454545 53.527273 100.072728 97.745455 9.309091 23.272727 13.963636 46.545455 13.963636 72.145454v18.618182c-2.327273 30.254545-9.309091 58.181818-20.945455 86.109091-9.309091 27.927273-23.272727 53.527273-37.236363 79.127273-13.963636 25.6-32.581818 51.2-51.2 72.145454-20.945455 23.272727-41.890909 46.545455-62.836364 67.490909-6.981818 6.981818-16.290909 6.981818-23.272727 2.327273l-2.327273-2.327273c-23.272727-20.945455-44.218182-44.218182-65.163636-67.490909-18.618182-23.272727-37.236364-48.872727-53.527273-74.472727-16.290909-25.6-27.927273-53.527273-37.236364-81.454545-11.636364-27.927273-16.290909-55.854545-20.945454-86.109091z m188.509091-95.418182c-11.636364 0-20.945455 2.327273-32.581818 6.981818-9.309091 4.654545-16.290909 9.309091-25.6 16.290909-6.981818 6.981818-13.963636 16.290909-16.29091 25.6-9.309091 18.618182-9.309091 41.890909 0 60.509091 4.654545 9.309091 9.309091 18.618182 16.29091 25.6 6.981818 6.981818 16.290909 11.636364 25.6 16.290909 9.309091 4.654545 20.945455 6.981818 32.581818 6.981818 11.636364 0 20.945455-2.327273 32.581818-6.981818 9.309091-4.654545 18.618182-9.309091 25.6-16.290909 6.981818-6.981818 13.963636-16.290909 16.290909-25.6 9.309091-18.618182 9.309091-41.890909 0-60.509091-4.654545-9.309091-9.309091-18.618182-16.290909-25.6-6.981818-6.981818-16.290909-13.963636-25.6-16.290909-11.636364-4.654545-23.272727-6.981818-32.581818-6.981818z m-132.654546 372.363636c16.290909 18.618182 32.581818 34.909091 48.872728 48.872727 13.963636 13.963636 27.927273 25.6 41.890909 39.563637 9.309091 9.309091 20.945455 16.290909 30.254545 25.6 6.981818 6.981818 18.618182 4.654545 25.6 0 2.327273-2.327273 6.981818-6.981818 11.636364-9.309091 6.981818-6.981818 16.290909-13.963636 25.6-23.272727 6.981818-6.981818 18.618182-6.981818 27.927272 0 4.654545 4.654545 4.654545 9.309091 4.654546 13.963636v200.145455c0 11.636364-9.309091 18.618182-18.618182 18.618181h-4.654545L395.636364 840.145455c-9.309091-2.327273-13.963636-9.309091-13.963637-18.618182V570.181818zM861.090909 330.472727v493.381818c0 9.309091-6.981818 16.290909-13.963636 18.618182L672.581818 884.363636c-9.309091 2.327273-20.945455-4.654545-23.272727-13.963636V572.509091c0-4.654545 2.327273-9.309091 4.654545-13.963636l4.654546-4.654546c2.327273-4.654545 6.981818-6.981818 9.309091-11.636364 11.636364-13.963636 23.272727-27.927273 32.581818-44.218181 9.309091-18.618182 18.618182-37.236364 25.6-55.854546 6.981818-18.618182 13.963636-39.563636 20.945454-58.181818 4.654545-16.290909 9.309091-30.254545 13.963637-44.218182 2.327273-6.981818 6.981818-11.636364 13.963636-13.963636l65.163637-16.290909c9.309091-2.327273 20.945455 4.654545 23.272727 13.963636-2.327273 2.327273-2.327273 4.654545-2.327273 6.981818z" fill="#6494EC" p-id="9850"></path></svg>