<?xml version="1.0" standalone="no"?><!DOCTYPE svg PUBLIC "-//W3C//DTD SVG 1.1//EN" "http://www.w3.org/Graphics/SVG/1.1/DTD/svg11.dtd"><svg t="1776904615045" class="icon" viewBox="0 0 1562 1024" version="1.1" xmlns="http://www.w3.org/2000/svg" p-id="9543" xmlns:xlink="http://www.w3.org/1999/xlink" width="305.078125" height="200"><path d="M943.157895 107.789474c-223.232 0-404.210526 180.978526-404.210527 404.210526 0 220.429474 176.424421 399.629474 395.749053 404.129684L943.157895 916.210526h188.631579a26.947368 26.947368 0 0 0 3.152842-53.706105L1131.789474 862.315789h-188.631579c-193.482105 0-350.315789-156.833684-350.31579-350.315789 0-190.706526 152.387368-345.815579 342.042948-350.208L943.157895 161.684211h188.631579a26.947368 26.947368 0 0 0 3.152842-53.706106L1131.789474 107.789474h-188.631579z" fill="#C7C7C8" p-id="9544"></path><path d="M1547.264 754.526316c8.650105 0 15.683368 8.946526 15.683368 19.941052v229.591579c0 10.994526-7.006316 19.941053-15.683368 19.941053H931.893895c-8.650105 0-15.683368-8.946526-15.683369-19.941053v-229.591579c0-10.994526 7.006316-19.941053 15.683369-19.941052h615.370105zM1536 781.473684H943.157895v215.578948h592.842105v-215.578948zM1544.192 0c10.374737 0 18.755368 8.946526 18.755368 19.941053v229.591579c0 10.994526-8.380632 19.941053-18.755368 19.941052H934.965895C924.564211 269.473684 916.210526 260.527158 916.210526 249.532632V19.941053c0-10.994526 8.380632-19.941053 18.755369-19.941053h609.226105zM1536 26.947368H943.157895v215.578948h592.842105V26.947368z" fill="#97A7BF" p-id="9545"></path><path d="M619.789474 485.052632h323.368421v53.894736H619.789474z" fill="#C7C7C8" p-id="9546"></path><path d="M633.667368 377.263158c7.221895 0 13.069474 8.946526 13.069474 19.941053v229.591578c0 10.994526-5.847579 19.941053-13.069474 19.941053H13.069474C5.847579 646.736842 0 637.790316 0 626.795789v-229.591578c0-10.994526 5.847579-19.941053 13.069474-19.941053h620.597894zM619.789474 404.210526H26.947368v215.578948h592.842106v-215.578948zM1549.877895 377.263158c7.221895 0 13.069474 8.946526 13.069473 19.941053v229.591578c0 10.994526-5.847579 19.941053-13.069473 19.941053h-620.597895c-7.221895 0-13.069474-8.946526-13.069474-19.941053v-229.591578c0-10.994526 5.847579-19.941053 13.069474-19.941053h620.597895zM1536 404.210526H943.157895v215.578948h592.842105v-215.578948z" fill="#97A7BF" p-id="9547"></path><path d="M943.157895 404.210526h592.842105v215.578948H943.157895zM943.157895 26.947368h592.842105v215.578948H943.157895zM943.157895 781.473684h592.842105v215.578948H943.157895z" fill="#FFFFFF" p-id="9548"></path><path d="M26.947368 404.210526h592.842106v215.578948H26.947368z" fill="#CADFFF" p-id="9549"></path></svg>