<?xml version="1.0" standalone="no"?><!DOCTYPE svg PUBLIC "-//W3C//DTD SVG 1.1//EN" "http://www.w3.org/Graphics/SVG/1.1/DTD/svg11.dtd"><svg t="1776856243033" class="icon" viewBox="0 0 1024 1024" version="1.1" xmlns="http://www.w3.org/2000/svg" p-id="14316" data-spm-anchor-id="a313x.search_index.0.i3.750b3a81U6xYly" xmlns:xlink="http://www.w3.org/1999/xlink" width="200" height="200"><path d="M984 0H40C17.9 0 0 17.9 0 40v944c0 22.1 17.9 40 40 40h944c22.1 0 40-17.9 40-40V40c0-22.1-17.9-40-40-40z m-38.2 905.8c0 22.1-17.9 40-40 40H118.2c-22.1 0-40-17.9-40-40V368.3c0-22.1 17.9-40 40-40h787.5c22.1 0 40 17.9 40 40v537.5z" p-id="14317" fill="#2c2c2c" data-spm-anchor-id="a313x.search_index.0.i2.750b3a81U6xYly" class="selected"></path><path d="M851 851H387c-22.1 0-40-17.9-40-40v-84c0-22.1 17.9-40 40-40h464c22.1 0 40 17.9 40 40v84c0 22.1-17.9 40-40 40zM257 851h-84c-22.1 0-40-17.9-40-40v-84c0-22.1 17.9-40 40-40h84c22.1 0 40 17.9 40 40v84c0 22.1-17.9 40-40 40z" p-id="14318" fill="#8a8a8a" data-spm-anchor-id="a313x.search_index.0.i1.750b3a81U6xYly" class=""></path><path d="M851 587H387c-22.1 0-40-17.9-40-40v-84c0-22.1 17.9-40 40-40h464c22.1 0 40 17.9 40 40v84c0 22.1-17.9 40-40 40zM257 587h-84c-22.1 0-40-17.9-40-40v-84c0-22.1 17.9-40 40-40h84c22.1 0 40 17.9 40 40v84c0 22.1-17.9 40-40 40z" p-id="14319" fill="#8a8a8a" data-spm-anchor-id="a313x.search_index.0.i0.750b3a81U6xYly" class=""></path></svg>