<?xml version="1.0" standalone="no"?><!DOCTYPE svg PUBLIC "-//W3C//DTD SVG 1.1//EN" "http://www.w3.org/Graphics/SVG/1.1/DTD/svg11.dtd"><svg t="1756218998169" class="icon" viewBox="0 0 1024 1024" version="1.1" xmlns="http://www.w3.org/2000/svg" p-id="8758" xmlns:xlink="http://www.w3.org/1999/xlink" width="200" height="200"><path d="M896 512L576 832h192l-64 192 320-320h-192z" fill="#FCB01B" p-id="8759"></path><path d="M224 64H96c-16 0-32 16-32 32v128c0 16 16 32 32 32h128c16 0 32-16 32-32V96c0-16-16-32-32-32zM192 192H128V128h64v64z m288-128h-128c-16 0-32 16-32 32v128c0 16 16 32 32 32h128c16 0 32-16 32-32V96c0-16-16-32-32-32z m-32 128h-64V128h64v64z m32 128h-128c-16 0-32 16-32 32v128c0 16 16 32 32 32h128c16 0 32-16 32-32v-128c0-16-16-32-32-32z m-32 128h-64v-64h64v64z m-224-128H96c-16 0-32 16-32 32v128c0 16 16 32 32 32h128c16 0 32-16 32-32v-128c0-16-16-32-32-32z m-32 128H128v-64h64v64zM736 64h-128c-16 0-32 16-32 32v128c0 16 16 32 32 32h128c16 0 32-16 32-32V96c0-16-16-32-32-32z m-32 128h-64V128h64v64z m-224 384h-128c-16 0-32 16-32 32v128c0 16 16 32 32 32h128c16 0 32-16 32-32v-128c0-16-16-32-32-32z m-32 128h-64v-64h64v64z m288-384h-128c-16 0-32 16-32 32v128c0 16 16 32 32 32h128c16 0 32-16 32-32v-128c0-16-16-32-32-32z m-32 128h-64v-64h64v64zM224 576H96c-16 0-32 16-32 32v128c0 16 16 32 32 32h128c16 0 32-16 32-32v-128c0-16-16-32-32-32z m-32 128H128v-64h64v64z" fill="#387CB7" p-id="8760"></path></svg>