<?xml version="1.0" standalone="no"?><!DOCTYPE svg PUBLIC "-//W3C//DTD SVG 1.1//EN" "http://www.w3.org/Graphics/SVG/1.1/DTD/svg11.dtd"><svg t="1733926664322" class="icon" viewBox="0 0 1024 1024" version="1.1" xmlns="http://www.w3.org/2000/svg" p-id="4472" xmlns:xlink="http://www.w3.org/1999/xlink" width="200" height="200"><path d="M512 0C229.248 0 0 229.248 0 512s229.248 512 512 512 512-229.248 512-512S794.752 0 512 0z m1.706667 164.608c56.32 0.810667 112.384 14.293333 161.28 42.197333 23.424 13.226667 40.832 27.392 52.821333 38.186667a294.912 294.912 0 0 0-96 129.706667c-2.56 7.04-5.248 15.104-7.808 23.296a292.522667 292.522667 0 0 0-10.752 68.48c-0.128 6.912 0.085333 15.957333 0.128 24.661333 0.512 10.325333 2.133333 22.144 3.413333 33.664a299.221333 299.221333 0 0 0 74.794667 153.002667 293.930667 293.930667 0 0 0 79.786667 60.586666 332.458667 332.458667 0 0 1-112.170667 92.416 329.258667 329.258667 0 0 1-164.096 34.474667 390.826667 390.826667 0 0 1-9.386667-0.554667 328.32 328.32 0 0 1-64.170666-10.538666 349.909333 349.909333 0 0 1-120.746667-57.770667 301.056 301.056 0 0 1-80.810667-89.6c-9.386667-16.213333-63.573333-112.810667-32.810666-232.618667A309.802667 309.802667 0 0 1 253.013333 349.013333a235.221333 235.221333 0 0 0-89.813333 46.165334C175.786667 365.781333 226.389333 256 350.592 198.826667a381.610667 381.610667 0 0 1 163.114667-34.133334z m243.285333 107.008c8.618667 5.376 19.797333 13.184 31.402667 24.405333 4.608 4.394667 20.394667 19.968 34.986666 44.970667 17.621333 29.994667 23.424 56.618667 26.453334 70.4a235.52 235.52 0 0 1 0.554666 98.218667 304.341333 304.341333 0 0 0-87.210666-72.021334 309.034667 309.034667 0 0 0-66.176 12.8 291.584 291.584 0 0 0-44.8 18.005334 258.474667 258.474667 0 0 1 11.392-66.688 252.714667 252.714667 0 0 1 34.389333-70.101334 266.88 266.88 0 0 1 59.008-59.989333z" p-id="4473" fill="#0D7BF4"></path></svg>