<?xml version="1.0" standalone="no"?><!DOCTYPE svg PUBLIC "-//W3C//DTD SVG 1.1//EN" "http://www.w3.org/Graphics/SVG/1.1/DTD/svg11.dtd"><svg t="1756198974747" class="icon" viewBox="0 0 1024 1024" version="1.1" xmlns="http://www.w3.org/2000/svg" p-id="7089" xmlns:xlink="http://www.w3.org/1999/xlink" width="200" height="200"><path d="M703.729284 320.270716v671.741589h159.938474V160.332242H31.987695v159.938474z" fill="#E0EBFE" p-id="7090"></path><path d="M1014.233837 54.996763A31.987695 31.987695 0 1 0 969.003237 9.766163L850.424852 128.344547H351.864642V32.381463a31.987695 31.987695 0 0 0-31.987695-31.987694H159.938474a31.987695 31.987695 0 0 0-31.987695 31.987694v95.963084H31.987695a31.987695 31.987695 0 0 0-31.987695 31.987695v159.938474a31.987695 31.987695 0 0 0 31.987695 31.987695h95.963084v511.803115a31.987695 31.987695 0 0 0 31.987695 31.987695h511.803115v95.963084a31.987695 31.987695 0 0 0 31.987695 31.987695h159.938474a31.987695 31.987695 0 0 0 31.987695-31.987695v-95.963084h95.963084a31.987695 31.987695 0 0 0 31.987694-31.987695v-159.938473a31.987695 31.987695 0 0 0-31.987694-31.987695h-95.963084V173.575148l118.578384-118.578385zM191.926168 64.369158h95.963085v63.975389H191.926168V64.369158z m479.815421 767.704674H191.926168V352.258411h95.963085v351.864642a31.987695 31.987695 0 0 0 31.987694 31.987694h351.864642v95.963085z m0-159.938474h-274.646347L671.741589 397.489011V672.135358z m-319.876947-45.2306V352.258411h274.646347L351.864642 626.904758zM831.680063 960.024611h-95.963084V320.270716a31.987695 31.987695 0 0 0-31.987695-31.987695H63.975389V192.319937h767.704674v767.704674z m127.950779-223.913864v95.963085h-63.975389v-95.963085h63.975389z" fill="#5465CF" p-id="7091"></path></svg>