<svg version="1.1" xmlns="http://www.w3.org/2000/svg" viewBox="0 0 19.5999755859375 21.377219853939792" width="19.5999755859375" height="21.377219853939792" class="excalidraw-svg"><!-- svg-source:excalidraw --><metadata></metadata><defs><style class="style-fonts">
      </style></defs><g stroke-linecap="round" transform="translate(0 0) rotate(0 9.79998779296875 7.990959289519452)"><path d="M4 0 C8.52 0, 13.05 0, 15.6 0 M4 0 C6.41 0, 8.82 0, 15.6 0 M15.6 0 C18.27 0, 19.6 1.33, 19.6 4 M15.6 0 C18.27 0, 19.6 1.33, 19.6 4 M19.6 4 C19.6 6.48, 19.6 8.96, 19.6 11.99 M19.6 4 C19.6 6.22, 19.6 8.45, 19.6 11.99 M19.6 11.99 C19.6 14.65, 18.27 15.98, 15.6 15.98 M19.6 11.99 C19.6 14.65, 18.27 15.98, 15.6 15.98 M15.6 15.98 C12.52 15.98, 9.44 15.98, 4 15.98 M15.6 15.98 C13.28 15.98, 10.96 15.98, 4 15.98 M4 15.98 C1.33 15.98, 0 14.65, 0 11.99 M4 15.98 C1.33 15.98, 0 14.65, 0 11.99 M0 11.99 C0 10.09, 0 8.19, 0 4 M0 11.99 C0 9.21, 0 6.43, 0 4 M0 4 C0 1.33, 1.33 0, 4 0 M0 4 C0 1.33, 1.33 0, 4 0" stroke="#1e1e1e" stroke-width="1" fill="none"></path></g><g stroke-linecap="round"><g transform="translate(12.80159168202762 0.23290190977934344) rotate(0 0.06576393762544797 5.054893536879707)"><path d="M0 0 C0.02 1.68, 0.11 8.42, 0.13 10.11 M0 0 C0.02 1.68, 0.11 8.42, 0.13 10.11" stroke="#1e1e1e" stroke-width="1" fill="none"></path></g></g><mask></mask><g stroke-linecap="round"><g transform="translate(0.12461259125900881 10.37411193376937) rotate(0 9.65056332194284 0)"><path d="M0 0 C6.43 0, 12.85 0, 19.3 0 M0 0 C6.06 0, 12.13 0, 19.3 0" stroke="#1e1e1e" stroke-width="1" fill="none"></path></g></g><mask></mask><g stroke-linecap="round"><g transform="translate(6.651022722602846 0.30946663483638304) rotate(0 0.06576393762544797 5.054893536879707)"><path d="M0 0 C0.02 1.68, 0.11 8.42, 0.13 10.11 M0 0 C0.02 1.68, 0.11 8.42, 0.13 10.11" stroke="#1e1e1e" stroke-width="1" fill="none"></path></g></g><mask></mask><g stroke-linecap="round" transform="translate(7.012759990328817 16.139372709222457) rotate(0 3.0135555915252894 2.6189235723586677)"><path d="M0 0 C1.54 0, 3.07 0, 6.03 0 M0 0 C1.88 0, 3.75 0, 6.03 0 M6.03 0 C6.03 1.37, 6.03 2.75, 6.03 5.24 M6.03 0 C6.03 1.22, 6.03 2.44, 6.03 5.24 M6.03 5.24 C4.61 5.24, 3.2 5.24, 0 5.24 M6.03 5.24 C4.75 5.24, 3.48 5.24, 0 5.24 M0 5.24 C0 3.51, 0 1.79, 0 0 M0 5.24 C0 4.03, 0 2.83, 0 0" stroke="#1e1e1e" stroke-width="1" fill="none"></path></g></svg>